<svg width="18" height="19" viewBox="0 0 18 19" fill="none" xmlns="http://www.w3.org/2000/svg">
<path d="M0.637078 0.933834L9.37708 9.50483L0.702078 18.1548C0.560152 17.97 0.44998 17.7628 0.376078 17.5418C0.337857 17.2916 0.337857 17.0371 0.376078 16.7868V2.06683C0.350078 1.67183 0.441078 1.27683 0.636078 0.933834M13.1421 5.76683L10.2891 8.59283L1.65308 0.0998344C1.93308 0.00283435 2.23308 -0.0241655 2.52608 0.0218345C2.98608 0.147835 3.42508 0.341834 3.82808 0.594834L11.6441 4.91983C12.1521 5.19283 12.6471 5.47983 13.1421 5.76683ZM10.2901 10.4298L13.1291 13.2178L11.0711 14.3638L4.79208 17.8538C4.27208 18.1408 3.75008 18.4148 3.24208 18.7278C3.02471 18.8632 2.78096 18.9506 2.52712 18.9842C2.27328 19.0178 2.01519 18.9969 1.77008 18.9228L10.2901 10.4298ZM17.6501 9.50483C17.6574 9.85451 17.569 10.1995 17.3945 10.5027C17.2201 10.8058 16.9661 11.0555 16.6601 11.2248L14.3141 12.5268L11.2271 9.50483L14.3271 6.43083C15.1221 6.87383 15.9041 7.31683 16.6851 7.73383C16.9966 7.90793 17.2524 8.16664 17.423 8.48004C17.5936 8.79345 17.673 9.14874 17.6501 9.50483Z" fill="#666666"/>
</svg>
