<svg width="17" height="17" viewBox="0 0 17 17" fill="none" xmlns="http://www.w3.org/2000/svg">
<path fill-rule="evenodd" clip-rule="evenodd" d="M10.75 1.57617C10.4564 1.40609 10.1073 1.35954 9.77943 1.44675C9.45155 1.53396 9.17171 1.74779 9.00142 2.04125L8.67599 2.59982L8.35178 2.04125C8.18141 1.74738 7.90129 1.53322 7.57303 1.44589C7.24476 1.35856 6.89525 1.4052 6.60139 1.57557C6.30752 1.74593 6.09336 2.02606 6.00603 2.35432C5.9187 2.68258 5.96534 3.03209 6.13571 3.32596L7.19578 5.15346L3.82249 10.9699H1.58821C1.24877 10.9699 0.923231 11.1047 0.683211 11.3448C0.443191 11.5848 0.30835 11.9103 0.30835 12.2497C0.30835 12.5892 0.443191 12.9147 0.683211 13.1547C0.923231 13.3948 1.24877 13.5296 1.58821 13.5296H10.4768L8.99535 10.9699H6.78292L8.67599 7.70467L11.2151 3.32717C11.2995 3.18176 11.3544 3.02113 11.3767 2.85448C11.399 2.68783 11.3883 2.51842 11.3451 2.35592C11.3019 2.19342 11.2271 2.04103 11.125 1.90745C11.0229 1.77386 10.8955 1.66171 10.75 1.57739V1.57617ZM2.11035 16.5714C2.41167 16.7446 2.76943 16.7912 3.10504 16.7008C3.44065 16.6104 3.72665 16.3905 3.90021 16.0893L4.62149 14.8386H1.59792C1.44488 15.1381 1.41271 15.4848 1.50808 15.8073C1.60345 16.1298 1.81906 16.4033 2.11035 16.5714ZM13.4651 16.0893L9.41185 9.04889L10.9212 6.45275L13.5428 10.9699H15.5695C15.9093 10.9699 16.2351 11.1049 16.4753 11.3451C16.7156 11.5854 16.8506 11.9112 16.8506 12.251C16.8506 12.5907 16.7156 12.9166 16.4753 13.1568C16.2351 13.3971 15.9093 13.532 15.5695 13.532H15.017L15.7371 14.7815C15.832 14.9309 15.8957 15.098 15.9243 15.2727C15.9529 15.4474 15.9458 15.626 15.9036 15.7979C15.8613 15.9698 15.7846 16.1314 15.6783 16.2728C15.5719 16.4143 15.438 16.5328 15.2846 16.6211C15.1312 16.7095 14.9615 16.7658 14.7858 16.7869C14.61 16.8079 14.4318 16.7931 14.2619 16.7434C14.092 16.6937 13.934 16.6101 13.7972 16.4977C13.6605 16.3853 13.548 16.2464 13.4664 16.0893H13.4651Z" fill="#666666"/>
</svg>
