<svg width="30" height="28" viewBox="0 0 30 28" fill="none" xmlns="http://www.w3.org/2000/svg">
<path d="M28.9499 0C28.3999 0 27.9361 1.44696 27.9361 2.60412V27.9718L24.5708 25.9718L21.2055 27.9718L17.8402 25.9718L14.4749 27.9718L11.1096 25.9718L7.74436 27.9718L4.37907 25.9718L1.01378 27.9718V2.6037C1.01378 1.44655 0.549931 0 0 0H28.9499Z" fill="#318616"/>
<path d="M5.32365 10.9766V9.85656L7.67378 7.79902C7.84996 7.63962 7.99992 7.49385 8.12367 7.36171C8.24742 7.22748 8.3418 7.09325 8.40682 6.95901C8.47184 6.82268 8.50435 6.67482 8.50435 6.51541C8.50435 6.33714 8.46554 6.18508 8.38794 6.05923C8.31034 5.93129 8.20337 5.83271 8.06704 5.7635C7.93071 5.69429 7.77445 5.65968 7.59827 5.65968C7.41999 5.65968 7.26374 5.69638 7.12951 5.76979C6.99527 5.8411 6.8904 5.94492 6.8149 6.08125C6.74149 6.21758 6.70478 6.38328 6.70478 6.57834H5.22927C5.22927 6.13998 5.32785 5.7614 5.525 5.4426C5.72216 5.1238 5.99901 4.8784 6.35557 4.70642C6.71422 4.53233 7.13056 4.44529 7.60457 4.44529C8.09326 4.44529 8.51798 4.52709 8.87873 4.69068C9.23948 4.85428 9.51843 5.0829 9.71559 5.37653C9.91484 5.66807 10.0145 6.0068 10.0145 6.39272C10.0145 6.63811 9.96518 6.88141 9.8666 7.12261C9.76802 7.36381 9.59079 7.63018 9.33491 7.92171C9.08113 8.21325 8.72038 8.56247 8.25266 8.96936L7.48187 9.68038V9.72127H10.0931V10.9766H5.32365ZM13.638 11.1339C13.0759 11.1339 12.5914 11.0007 12.1845 10.7343C11.7776 10.4658 11.464 10.081 11.2438 9.5797C11.0236 9.07633 10.9145 8.47123 10.9166 7.76441C10.9187 7.05759 11.0288 6.45774 11.2469 5.96485C11.4672 5.46986 11.7797 5.09338 12.1845 4.8354C12.5914 4.57533 13.0759 4.44529 13.638 4.44529C14.2001 4.44529 14.6846 4.57533 15.0915 4.8354C15.5005 5.09338 15.8151 5.46986 16.0353 5.96485C16.2555 6.45983 16.3646 7.05969 16.3625 7.76441C16.3625 8.47333 16.2524 9.07947 16.0321 9.58285C15.8119 10.0862 15.4984 10.4711 15.0915 10.7375C14.6867 11.0017 14.2022 11.1339 13.638 11.1339ZM13.638 9.8597C13.9736 9.8597 14.2452 9.68877 14.4528 9.34689C14.6604 9.00292 14.7632 8.47543 14.7611 7.76441C14.7611 7.29879 14.7139 6.91497 14.6195 6.61294C14.5252 6.30882 14.3941 6.0823 14.2263 5.93339C14.0585 5.78447 13.8624 5.71002 13.638 5.71002C13.3045 5.71002 13.035 5.87886 12.8294 6.21654C12.6239 6.55212 12.5201 7.06808 12.518 7.76441C12.5159 8.23632 12.561 8.62749 12.6532 8.9379C12.7476 9.24831 12.8798 9.48007 13.0497 9.63318C13.2195 9.7842 13.4156 9.8597 13.638 9.8597ZM20.863 9.76847V9.42869C20.863 9.16442 20.9196 8.92007 21.0328 8.69565C21.1482 8.47123 21.3149 8.29085 21.5331 8.15452C21.7512 8.01819 22.0176 7.95003 22.3322 7.95003C22.6531 7.95003 22.9226 8.01819 23.1407 8.15452C23.3609 8.28876 23.5266 8.46808 23.6378 8.6925C23.7511 8.91483 23.8077 9.16022 23.8077 9.42869V9.76847C23.8077 10.0327 23.7511 10.2771 23.6378 10.5015C23.5245 10.7259 23.3578 10.9063 23.1376 11.0426C22.9173 11.179 22.6489 11.2471 22.3322 11.2471C22.0134 11.2471 21.7449 11.179 21.5268 11.0426C21.3086 10.9063 21.143 10.7259 21.0297 10.5015C20.9185 10.2771 20.863 10.0327 20.863 9.76847ZM21.8666 9.42869V9.76847C21.8666 9.9027 21.8991 10.0317 21.9641 10.1554C22.0312 10.2792 22.1539 10.3411 22.3322 10.3411C22.5146 10.3411 22.6373 10.2813 22.7003 10.1617C22.7632 10.0401 22.7946 9.90899 22.7946 9.76847V9.42869C22.7946 9.28816 22.7642 9.15603 22.7034 9.03228C22.6447 8.90644 22.5209 8.84352 22.3322 8.84352C22.156 8.84352 22.0343 8.90644 21.9672 9.03228C21.9001 9.15603 21.8666 9.28816 21.8666 9.42869ZM17.5218 6.08125V5.74148C17.5218 5.47301 17.5795 5.22762 17.6948 5.00529C17.8123 4.78087 17.9801 4.60155 18.1982 4.46731C18.4163 4.33098 18.6806 4.26282 18.991 4.26282C19.3119 4.26282 19.5814 4.33098 19.7996 4.46731C20.0198 4.60155 20.1865 4.78087 20.2998 5.00529C20.4131 5.22762 20.4697 5.47301 20.4697 5.74148V6.08125C20.4697 6.34972 20.412 6.59511 20.2967 6.81744C20.1834 7.03976 20.0167 7.21699 19.7964 7.34913C19.5762 7.48126 19.3077 7.54733 18.991 7.54733C18.6743 7.54733 18.4059 7.48021 18.1856 7.34598C17.9675 7.21175 17.8018 7.03347 17.6886 6.81115C17.5774 6.58882 17.5218 6.34553 17.5218 6.08125ZM18.5349 5.74148V6.08125C18.5349 6.22178 18.5674 6.35287 18.6324 6.47451C18.6995 6.59407 18.819 6.65384 18.991 6.65384C19.1756 6.65384 19.2983 6.59407 19.3591 6.47451C19.422 6.35287 19.4535 6.22178 19.4535 6.08125V5.74148C19.4535 5.60095 19.4241 5.46882 19.3654 5.34507C19.3067 5.21923 19.1819 5.15631 18.991 5.15631C18.8149 5.15631 18.6943 5.22028 18.6292 5.34822C18.5663 5.47616 18.5349 5.60724 18.5349 5.74148ZM17.9969 10.9766L22.4266 4.53338H23.2854L18.8558 10.9766H17.9969ZM12.5813 18.755C12.5813 19.4639 12.4449 20.0648 12.1723 20.5577C11.8996 21.0506 11.5305 21.4249 11.0649 21.6808C10.6013 21.9367 10.0812 22.0647 9.50441 22.0647C8.92553 22.0647 8.40433 21.9357 7.9408 21.6777C7.47728 21.4197 7.10919 21.0453 6.83653 20.5545C6.56596 20.0616 6.43068 19.4618 6.43068 18.755C6.43068 18.0461 6.56596 17.4452 6.83653 16.9523C7.10919 16.4594 7.47728 16.085 7.9408 15.8291C8.40433 15.5732 8.92553 15.4453 9.50441 15.4453C10.0812 15.4453 10.6013 15.5732 11.0649 15.8291C11.5305 16.085 11.8996 16.4594 12.1723 16.9523C12.4449 17.4452 12.5813 18.0461 12.5813 18.755ZM10.9894 18.755C10.9894 18.3355 10.9296 17.981 10.81 17.6916C10.6926 17.4022 10.5227 17.183 10.3004 17.0341C10.0801 16.8851 9.81482 16.8107 9.50441 16.8107C9.19609 16.8107 8.93077 16.8851 8.70845 17.0341C8.48612 17.183 8.31519 17.4022 8.19564 17.6916C8.07818 17.981 8.01945 18.3355 8.01945 18.755C8.01945 19.1744 8.07818 19.5289 8.19564 19.8183C8.31519 20.1078 8.48612 20.327 8.70845 20.4759C8.93077 20.6248 9.19609 20.6993 9.50441 20.6993C9.81482 20.6993 10.0801 20.6248 10.3004 20.4759C10.5227 20.327 10.6926 20.1078 10.81 19.8183C10.9296 19.5289 10.9894 19.1744 10.9894 18.755ZM13.4905 21.9766V15.5334H17.8887V16.7981H15.0478V18.1195H17.6087V19.3873H15.0478V21.9766H13.4905ZM18.6729 21.9766V15.5334H23.0711V16.7981H20.2302V18.1195H22.7911V19.3873H20.2302V21.9766H18.6729Z" fill="white"/>
</svg>
